<svg width="100" height="100" viewBox="0 0 100 100" fill="none" xmlns="http://www.w3.org/2000/svg">
<path d="M23.7254 14.4249C34.1583 22.3036 45.3797 38.2786 49.5 46.8507C53.6203 38.2786 64.8415 22.3036 75.2746 14.4249C82.8023 8.74016 95 4.34179 95 18.3382C95 21.1334 93.4066 41.8204 92.4722 45.1792C89.2238 56.8553 77.3875 59.8335 66.8583 58.0309C85.2627 61.1817 89.9444 71.6181 79.8334 82.0543C57.0834 105.536 49.5 69.4928 49.5 69.4928C49.5 69.4928 41.9166 105.536 19.1666 82.0543C9.05562 71.6181 13.7373 61.1817 32.1418 58.0309C21.6125 59.8335 9.77623 56.8553 6.52781 45.1792C5.59335 41.8204 4 21.1334 4 18.3382C4 4.34179 16.1977 8.73987 23.7254 14.4249Z" fill="#0A7AFF"/>
<path d="M58.7495 53.3137L58.4057 53.7177L58.7808 54.0929L59.3517 54.6637L59.5201 54.8321H59.7583H61.1904L71.1868 64.8286L68.8286 67.1868L58.8321 57.1904V55.7583V55.5201L58.6637 55.3517L58.0929 54.7808L57.7177 54.4057L57.3137 54.7495C55.0026 56.7159 52.0042 57.9107 48.7429 57.9107C45.2505 57.9107 41.9012 56.5234 39.4318 54.0539C36.9623 51.5845 35.575 48.2352 35.575 44.7429C35.575 41.2505 36.9623 37.9012 39.4318 35.4318C41.9012 32.9623 45.2505 31.575 48.7429 31.575C52.2352 31.575 55.5845 32.9623 58.0539 35.4318C60.5234 37.9012 61.9107 41.2505 61.9107 44.7429C61.9107 48.0042 60.7159 51.0026 58.7495 53.3137ZM48.7429 34.6536C43.1396 34.6536 38.6536 39.1396 38.6536 44.7429C38.6536 50.3461 43.1396 54.8321 48.7429 54.8321C54.3461 54.8321 58.8321 50.3461 58.8321 44.7429C58.8321 39.1396 54.3461 34.6536 48.7429 34.6536Z" fill="#FEFEFE" stroke="#0A366B" stroke-width="1.15"/>
</svg>
